<svg xmlns="http://www.w3.org/2000/svg" width="751" height="647" fill="none" xmlns:v="https://vecta.io/nano"><path d="M626.502 493.475l-.443 1.02-.536 1.228-29.007 62.795-83.739-37.364a122.28 122.28 0 0 1-39.367-27.828c-11.143-11.794-19.821-25.686-25.529-40.865a121.94 121.94 0 0 1-7.717-47.545 121.96 121.96 0 0 1 11.294-46.825l1.582-3.427 36.823-79.701 62.926 28.105c123.215 54.897 81.329 171.687 73.713 190.407z" fill="#0082ce"/><path d="M747.864 223.565l-.987 3.118-1.121 3.076c-.377 1.028-.837 2.006-1.314 3.018L625.896 494.074c7.337-18.314 47.447-132.905-72.623-187.347l-61.243-27.818-78.245-35.458-3.347-1.521c-60.975-22.569-91.664-92.064-64.28-151.596L387.204 0l61.528 27.944 263.724 119.615c1.021.459 2.034.919 2.996 1.446l2.869 1.579 2.787 1.672c11.539 7.434 20.373 18.385 25.193 31.23a63.76 63.76 0 0 1 1.563 40.079z" fill="#007bcb"/><path d="M123.807 152.682l.442-1.02.533-1.228 28.875-62.79 83.383 37.387c14.779 6.573 28.104 16.032 39.198 27.825s19.735 25.682 25.419 40.859a122.41 122.41 0 0 1 7.685 47.537 122.36 122.36 0 0 1-11.244 46.819l-1.566 3.426-36.667 79.703-62.658-28.102c-122.691-54.952-80.983-171.74-73.4-190.416z" fill="#0082ce"/><path d="M2.491 422.579l.977-3.109 1.127-3.076c.376-1.02.835-2.006 1.302-3.026L124.16 152.089c-7.33 18.313-47.343 132.896 72.455 187.342l61.194 27.842 78.074 35.455 3.339 1.522c60.843 22.567 91.473 92.058 64.149 151.585l-40.966 90.328-61.393-27.942L37.88 498.623c-1.019-.468-2.037-.928-2.989-1.455l-2.864-1.579-2.788-1.672c-11.527-7.431-20.354-18.384-25.172-31.235s-5.371-26.913-1.576-40.103z" fill="#007bcb"/></svg>